<svg xmlns="http://www.w3.org/2000/svg" viewBox="0 0 270 200" width="100%" height="200">
  <defs>
    <style>
      @import url('https://fonts.googleapis.com/css2?family=Space+Grotesk:wght@600&amp;family=Inter:wght@400;500&amp;family=JetBrains+Mono&amp;display=swap');
      .title { font-family: 'Space Grotesk', sans-serif; font-size: 15px; fill: #e2e8f0; font-weight: 600; }
      .desc { font-family: 'Inter', sans-serif; font-size: 11px; fill: #94a3b8; font-weight: 400; }
      .meta { font-family: 'JetBrains Mono', monospace; font-size: 10px; fill: #3b82f6; }
      .card-bg { fill: #071428; stroke: rgba(255,255,255,0.06); stroke-width: 1; rx: 16px; }
      .icon-box { fill: #0f172a; stroke: rgba(255,255,255,0.08); stroke-width: 1; rx: 8px; }
    </style>
  </defs>

  <rect width="100%" height="100%" class="card-bg" />
  
  <!-- Diagonal Decorative Linear Lines -->
  <path d="M 230 0 L 270 40 M 240 0 L 270 30" stroke="rgba(255,255,255,0.02)" stroke-width="1.5" />

  <!-- App Custom Icon -->
  <g transform="translate(24, 24)">
    <rect width="36" height="36" class="icon-box" />
    <!-- Book + Brain Nodes Vector -->
    <path d="M 11 25 C 14 22, 18 22, 18 25 C 18 22, 22 22, 25 25 L 25 14 C 22 11, 18 11, 18 14 C 18 11, 14 11, 11 14 Z" fill="none" stroke="#3b82f6" stroke-width="1.5" />
    <line x1="18" y1="14" x2="18" y2="25" stroke="#3b82f6" stroke-width="1.5" />
    <circle cx="18" cy="11" r="1.5" fill="#3b82f6" />
  </g>

  <!-- Title & Language Indicator -->
  <text x="24" y="85" class="title">Zimmedar</text>
  <text x="246" y="85" class="meta" text-anchor="end">Python</text>
  
  <!-- Project Metadata Lines -->
  <text x="24" y="110" class="desc">Gamified Multilingual AI Assistant</text>
  <text x="24" y="128" class="desc">• Contextual interactive learning loops</text>
  <text x="24" y="144" class="desc">• High-engagement educational workflow</text>
  
  <!-- Status Indicator -->
  <g transform="translate(24, 173)">
    <circle cx="4" cy="-4" r="3" fill="#3b82f6" />
    <text x="16" y="0" class="meta" fill="#3b82f6">COGNITIVE PIPELINE ACTIVE</text>
  </g>
</svg>
